<svg width="13" height="13" viewBox="0 0 13 13" fill="none" xmlns="http://www.w3.org/2000/svg">
<path d="M5.99798 2.91455C5.18041 2.91455 4.39632 3.23933 3.81821 3.81744C3.24009 4.39556 2.91531 5.17964 2.91531 5.99722C2.91531 6.81479 3.24009 7.59888 3.81821 8.17699C4.39632 8.7551 5.18041 9.07988 5.99798 9.07988C6.81555 9.07988 7.59964 8.7551 8.17776 8.17699C8.75587 7.59888 9.08065 6.81479 9.08065 5.99722C9.08065 5.17964 8.75587 4.39556 8.17776 3.81744C7.59964 3.23933 6.81555 2.91455 5.99798 2.91455ZM5.99798 7.99922C5.46684 7.99922 4.95745 7.78822 4.58188 7.41265C4.20631 7.03708 3.99531 6.52769 3.99531 5.99655C3.99531 5.46541 4.20631 4.95602 4.58188 4.58045C4.95745 4.20488 5.46684 3.99388 5.99798 3.99388C6.52912 3.99388 7.03851 4.20488 7.41408 4.58045C7.78965 4.95602 8.00065 5.46541 8.00065 5.99655C8.00065 6.52769 7.78965 7.03708 7.41408 7.41265C7.03851 7.78822 6.52912 7.99922 5.99798 7.99922Z" fill="white"/>
<path d="M9.20265 3.51985C9.59955 3.51985 9.92131 3.19809 9.92131 2.80119C9.92131 2.40428 9.59955 2.08252 9.20265 2.08252C8.80574 2.08252 8.48398 2.40428 8.48398 2.80119C8.48398 3.19809 8.80574 3.51985 9.20265 3.51985Z" fill="white"/>
<path d="M11.6873 2.07067C11.533 1.67212 11.2972 1.31019 10.9949 1.00804C10.6926 0.70589 10.3306 0.470181 9.932 0.316C9.46556 0.140905 8.97279 0.0462274 8.47467 0.0359999C7.83267 0.00799993 7.62933 0 6.00133 0C4.37333 0 4.16467 -6.70552e-08 3.528 0.0359999C3.03026 0.0457045 2.53784 0.140401 2.072 0.316C1.67329 0.470001 1.31118 0.705647 1.00889 1.00782C0.706603 1.30999 0.470819 1.67202 0.316667 2.07067C0.141536 2.53707 0.0470764 3.02989 0.0373333 3.528C0.00866666 4.16933 0 4.37267 0 6.00133C0 7.62933 -4.96705e-09 7.83667 0.0373333 8.47467C0.0473333 8.97333 0.141333 9.46533 0.316667 9.93267C0.471252 10.3312 0.707264 10.6931 1.00962 10.9952C1.31198 11.2973 1.67404 11.533 2.07267 11.6873C2.53762 11.8695 3.03025 11.9709 3.52933 11.9873C4.17133 12.0153 4.37467 12.024 6.00267 12.024C7.63067 12.024 7.83933 12.024 8.476 11.9873C8.97407 11.9772 9.46682 11.8828 9.93334 11.708C10.3318 11.5535 10.6938 11.3175 10.996 11.0153C11.2982 10.7131 11.5341 10.3512 11.6887 9.95267C11.864 9.486 11.958 8.994 11.968 8.49533C11.9967 7.854 12.0053 7.65067 12.0053 6.022C12.0053 4.39333 12.0053 4.18667 11.968 3.54867C11.9602 3.04351 11.8653 2.5435 11.6873 2.07067ZM10.8753 8.42533C10.871 8.80954 10.8009 9.19016 10.668 9.55067C10.5679 9.80991 10.4146 10.0453 10.218 10.2418C10.0215 10.4382 9.78597 10.5914 9.52667 10.6913C9.17015 10.8236 8.79357 10.8938 8.41333 10.8987C7.78 10.928 7.60133 10.9353 5.97733 10.9353C4.352 10.9353 4.186 10.9353 3.54067 10.8987C3.16062 10.894 2.78422 10.8239 2.428 10.6913C2.16779 10.592 1.93133 10.4391 1.73393 10.2426C1.53652 10.0462 1.38256 9.81041 1.282 9.55067C1.15096 9.19403 1.08087 8.81789 1.07467 8.438C1.046 7.80467 1.03933 7.626 1.03933 6.002C1.03933 4.37733 1.03933 4.21133 1.07467 3.56533C1.07898 3.18135 1.1491 2.80095 1.282 2.44067C1.48533 1.91467 1.902 1.50067 2.428 1.29933C2.78439 1.16743 3.16068 1.09731 3.54067 1.092C4.17467 1.06333 4.35267 1.05533 5.97733 1.05533C7.602 1.05533 7.76867 1.05533 8.41333 1.092C8.79361 1.09657 9.17024 1.16671 9.52667 1.29933C9.78595 1.39952 10.0214 1.5528 10.218 1.74935C10.4145 1.94591 10.5678 2.18138 10.668 2.44067C10.799 2.7973 10.8691 3.17344 10.8753 3.55333C10.904 4.18733 10.9113 4.36533 10.9113 5.99C10.9113 7.614 10.9113 7.78867 10.8827 8.426H10.8753V8.42533Z" fill="white"/>
</svg>
