<svg width="14" height="14" viewBox="0 0 14 14" fill="none" xmlns="http://www.w3.org/2000/svg">
<path d="M7.64221 1C7.64221 1 9.11835 1.13419 10.9971 3.01292C12.8758 4.89165 13.01 6.36779 13.01 6.36779" stroke="#CE2424" stroke-linecap="round"/>
<path d="M8.08945 3.23706C8.08945 3.23706 8.71569 3.41599 9.65505 4.35535C10.5944 5.29471 10.7733 5.92095 10.7733 5.92095" stroke="#CE2424" stroke-linecap="round"/>
<path d="M8.65491 9.24037L8.29238 8.89602H8.29238L8.65491 9.24037ZM8.94303 8.93704L9.30556 9.28138L8.94303 8.93704ZM10.4718 8.72487L10.2224 9.15821V9.15821L10.4718 8.72487ZM11.6804 9.42052L11.431 9.85386L11.6804 9.42052ZM12.0209 11.6007L12.3835 11.9451L12.0209 11.6007ZM11.1223 12.5468L10.7598 12.2025V12.2025L11.1223 12.5468ZM10.2842 12.9954L10.3333 13.493L10.2842 12.9954ZM4.0462 10.1564L4.40873 9.81202L4.0462 10.1564ZM1.00183 4.14081L0.502545 4.16761L0.502545 4.16761L1.00183 4.14081ZM5.09768 5.11323L5.46021 5.45757L5.09768 5.11323ZM5.19682 3.33561L5.60508 3.04696V3.04696L5.19682 3.33561ZM4.39912 2.20738L3.99086 2.49604L3.99086 2.49604L4.39912 2.20738ZM2.43059 2.01698L2.79312 2.36133V2.36133L2.43059 2.01698ZM1.43766 3.06235L1.07513 2.71801L1.07513 2.71801L1.43766 3.06235ZM6.10073 7.99332L6.46326 7.64898L6.10073 7.99332ZM9.01744 9.58471L9.30556 9.28138L8.5805 8.59269L8.29238 8.89602L9.01744 9.58471ZM10.2224 9.15821L11.431 9.85386L11.9298 8.98718L10.7212 8.29153L10.2224 9.15821ZM11.6584 11.2564L10.7598 12.2025L11.4848 12.8912L12.3835 11.9451L11.6584 11.2564ZM10.2351 12.4978C9.33394 12.5868 6.97351 12.5122 4.40873 9.81202L3.68367 10.5007C6.49192 13.4573 9.17292 13.6075 10.3333 13.493L10.2351 12.4978ZM4.40873 9.81202C1.96107 7.23509 1.55206 5.06334 1.50111 4.11401L0.502545 4.16761C0.565645 5.34321 1.06465 7.74337 3.68367 10.5007L4.40873 9.81202ZM5.27877 5.64859L5.46021 5.45757L4.73515 4.76888L4.55371 4.9599L5.27877 5.64859ZM5.60508 3.04696L4.80738 1.91872L3.99086 2.49604L4.78856 3.62427L5.60508 3.04696ZM2.06806 1.67264L1.07513 2.71801L1.80019 3.4067L2.79312 2.36133L2.06806 1.67264ZM4.91624 5.30425C4.55371 4.9599 4.55325 4.96039 4.55279 4.96088C4.55263 4.96105 4.55216 4.96154 4.55184 4.96188C4.55121 4.96255 4.55057 4.96324 4.54991 4.96394C4.54861 4.96535 4.54726 4.96682 4.54587 4.96835C4.54309 4.9714 4.54014 4.9747 4.53706 4.97825C4.53089 4.98535 4.52414 4.99343 4.51693 5.00254C4.50252 5.02074 4.48629 5.04303 4.46931 5.06958C4.43524 5.12282 4.39847 5.19266 4.36738 5.28003C4.30413 5.45778 4.27009 5.69201 4.31277 5.98325C4.39654 6.55503 4.7703 7.31865 5.7382 8.33766L6.46326 7.64898C5.56182 6.69993 5.34334 6.11901 5.3022 5.83828C5.28242 5.70325 5.30276 5.63423 5.3095 5.61528C5.31341 5.60431 5.31554 5.60245 5.31162 5.60857C5.30971 5.61155 5.30637 5.61643 5.30108 5.62312C5.29843 5.62646 5.2953 5.63026 5.2916 5.6345C5.28976 5.63662 5.28777 5.63886 5.28563 5.64121C5.28457 5.64238 5.28346 5.64359 5.28232 5.64482C5.28174 5.64543 5.28116 5.64605 5.28057 5.64668C5.28028 5.647 5.27983 5.64748 5.27968 5.64763C5.27922 5.64811 5.27877 5.64859 4.91624 5.30425ZM5.7382 8.33766C6.70311 9.35353 7.43547 9.75693 7.99867 9.8484C8.28796 9.89538 8.52318 9.85799 8.70215 9.7874C8.78959 9.75291 8.85889 9.71236 8.9111 9.67534C8.93714 9.65687 8.95887 9.63931 8.97649 9.62386C8.9853 9.61613 8.9931 9.60891 8.99991 9.60234C9.00331 9.59906 9.00648 9.59594 9.0094 9.59299C9.01086 9.59152 9.01226 9.5901 9.0136 9.58871C9.01427 9.58802 9.01492 9.58734 9.01556 9.58668C9.01588 9.58634 9.01635 9.58585 9.01651 9.58568C9.01698 9.5852 9.01744 9.58471 8.65491 9.24037C8.29238 8.89602 8.29284 8.89554 8.2933 8.89507C8.29344 8.89491 8.2939 8.89443 8.2942 8.89412C8.2948 8.8935 8.29539 8.89288 8.29598 8.89228C8.29715 8.89107 8.2983 8.8899 8.29942 8.88877C8.30167 8.8865 8.30382 8.88438 8.30587 8.88241C8.30998 8.87845 8.3137 8.87504 8.31704 8.87211C8.32372 8.86625 8.32891 8.86227 8.33257 8.85967C8.34002 8.85439 8.34122 8.85479 8.33524 8.85715C8.32739 8.86024 8.27457 8.88011 8.15898 8.86133C7.91242 8.82129 7.36769 8.60117 6.46326 7.64898L5.7382 8.33766ZM4.80738 1.91873C4.15765 0.999766 2.85573 0.843379 2.06806 1.67264L2.79312 2.36133C3.11189 2.02573 3.67528 2.0497 3.99086 2.49604L4.80738 1.91873ZM1.50111 4.11401C1.48802 3.87017 1.59404 3.62374 1.80019 3.4067L1.07513 2.71801C0.732673 3.07856 0.471053 3.58086 0.502545 4.16761L1.50111 4.11401ZM10.7598 12.2025C10.5861 12.3854 10.4067 12.4809 10.2351 12.4978L10.3333 13.493C10.8138 13.4456 11.2016 13.1894 11.4848 12.8912L10.7598 12.2025ZM5.46021 5.45757C6.08119 4.8038 6.12457 3.7817 5.60508 3.04696L4.78856 3.62427C5.04899 3.99261 5.0081 4.48152 4.73515 4.76888L5.46021 5.45757ZM11.431 9.85386C11.9364 10.1448 12.0343 10.8607 11.6584 11.2564L12.3835 11.9451C13.2208 11.0635 12.9766 9.58971 11.9298 8.98718L11.431 9.85386ZM9.30556 9.28138C9.54107 9.03343 9.90803 8.97728 10.2224 9.15821L10.7212 8.29153C10.0164 7.88581 9.14156 8.002 8.5805 8.59269L9.30556 9.28138Z" fill="#CE2424"/>
</svg>
