<svg width="14" height="10" viewBox="0 0 14 10" fill="none" xmlns="http://www.w3.org/2000/svg">
<path fill-rule="evenodd" clip-rule="evenodd" d="M3.65933 0.260114C5.88304 0.0861467 8.11695 0.0861467 10.3407 0.260114L11.834 0.377448C12.2385 0.408979 12.6207 0.574984 12.9199 0.849007C13.219 1.12303 13.4179 1.4893 13.4847 1.88945C13.8293 3.94945 13.8293 6.05145 13.4847 8.11078C13.4179 8.51083 13.2192 8.87702 12.9201 9.15103C12.6211 9.42504 12.239 9.59111 11.8347 9.62278L10.3413 9.73945C8.11739 9.91347 5.88326 9.91347 3.65933 9.73945L2.166 9.62278C1.76154 9.59125 1.37927 9.42525 1.08012 9.15122C0.780962 8.8772 0.582138 8.51093 0.515329 8.11078C0.171241 6.05128 0.171241 3.94895 0.515329 1.88945C0.582109 1.4894 0.780836 1.12321 1.07986 0.849201C1.37888 0.57519 1.76099 0.409122 2.16533 0.377448L3.65866 0.260781L3.65933 0.260114ZM5.66666 6.64678V3.35345C5.66672 3.3181 5.67614 3.28341 5.69396 3.25289C5.71178 3.22237 5.73738 3.19712 5.76814 3.1797C5.79889 3.16229 5.83372 3.15334 5.86906 3.15377C5.9044 3.15419 5.939 3.16397 5.96933 3.18211L8.71399 4.82878C8.74354 4.84657 8.76797 4.87169 8.78494 4.90171C8.80191 4.93174 8.81082 4.96563 8.81082 5.00011C8.81082 5.0346 8.80191 5.06849 8.78494 5.09851C8.76797 5.12854 8.74354 5.15366 8.71399 5.17145L5.96933 6.81811C5.939 6.83626 5.9044 6.84604 5.86906 6.84646C5.83372 6.84689 5.79889 6.83794 5.76814 6.82053C5.73738 6.80311 5.71178 6.77786 5.69396 6.74734C5.67614 6.71682 5.66672 6.68213 5.66666 6.64678Z" fill="white"/>
</svg>
